<svg viewBox="0 0 48 48" xml:space="preserve" xmlns="http://www.w3.org/2000/svg"><path d="M41.682.002H13.896V12.632H3.792v29.049a6.316 6.316 0 0 0 6.315 6.316h34.102V.002h-2.527zM13.896 36.658V41.348l-.048.812c-.005.041-.006.082-.012.121v.057h-.005a3.783 3.783 0 0 1-3.724 3.133c-1.77 0-3.235-1.221-3.651-2.863-.053-.26-.138-.719-.138-.926V15.159h7.579v21.499zm23.997 1.235H20.211v-2.578h17.682v2.578zm0-6.235H20.211V29.08h17.682v2.578zm0-6.367H20.211V22.71h17.682v2.581zm0-6.29H20.211v-2.579h17.682v2.579zm0-6.315H20.211v-2.579h17.682v2.579z" fill="#c89c64" class="fill-241f20"></path></svg>