<?xml version="1.0" standalone="no"?>
<!DOCTYPE svg PUBLIC "-//W3C//DTD SVG 20010904//EN"
 "http://www.w3.org/TR/2001/REC-SVG-20010904/DTD/svg10.dtd">
<svg version="1.0" xmlns="http://www.w3.org/2000/svg"
 width="256.000000pt" height="256.000000pt" viewBox="0 0 256.000000 256.000000"
 preserveAspectRatio="xMidYMid meet">

<g transform="translate(0.000000,256.000000) scale(0.100000,-0.100000)"
fill="#000000" stroke="none">
<path d="M405 1280 c0 -652 1 -918 2 -593 2 326 2 860 0 1185 -1 326 -2 60 -2
-592z"/>
<path d="M612 2203 l-2 -53 628 2 627 3 -622 2 -622 3 -4 48 -3 47 -2 -52z"/>
<path d="M1888 2153 c12 -2 30 -2 40 0 9 3 -1 5 -23 4 -22 0 -30 -2 -17 -4z"/>
<path d="M2155 1125 c0 -566 1 -797 2 -512 2 285 2 749 0 1030 -1 282 -2 49
-2 -518z"/>
<path d="M614 1936 c-3 -8 -4 -31 -2 -52 l3 -39 665 0 665 0 0 50 0 50 -663 3
c-561 2 -663 0 -668 -12z m1326 -41 l0 -45 -660 0 -660 0 0 45 0 45 660 0 660
0 0 -45z"/>
<path d="M614 1626 c-3 -8 -4 -31 -1 -52 3 -37 4 -37 5 9 l2 47 659 0 660 0 4
-47 4 -48 -1 50 -1 50 -663 3 c-561 2 -663 0 -668 -12z"/>
<path d="M613 1280 c0 -30 2 -43 4 -27 2 15 2 39 0 55 -2 15 -4 2 -4 -28z"/>
<path d="M1943 1280 c0 -30 2 -43 4 -27 2 15 2 39 0 55 -2 15 -4 2 -4 -28z"/>
<path d="M614 970 l1 -45 665 0 665 0 1 48 1 47 -4 -45 -4 -45 -659 0 -659 0
-4 43 -4 42 1 -45z"/>
<path d="M614 706 c-3 -8 -4 -31 -2 -52 l3 -39 665 0 665 0 0 50 0 50 -663 3
c-561 2 -663 0 -668 -12z m1326 -41 l0 -45 -660 0 -660 0 0 45 0 45 660 0 660
0 0 -45z"/>
<path d="M612 358 l2 -53 3 48 4 47 659 0 659 0 4 -47 3 -48 2 53 2 52 -670 0
-670 0 2 -52z"/>
</g>
</svg>
